<?xml version="1.0" standalone="no"?>
<!DOCTYPE svg PUBLIC "-//W3C//DTD SVG 20010904//EN"
 "http://www.w3.org/TR/2001/REC-SVG-20010904/DTD/svg10.dtd">
<svg version="1.0" xmlns="http://www.w3.org/2000/svg"
 width="512.000000pt" height="512.000000pt" viewBox="0 0 512.000000 512.000000"
 preserveAspectRatio="xMidYMid meet">

<g transform="translate(0.000000,512.000000) scale(0.100000,-0.100000)"
fill="#000000" stroke="none">
<path d="M1870 3987 c-51 -27 -90 -90 -90 -145 0 -80 64 -156 142 -168 l33 -6
94 -275 93 -276 -130 -130 -130 -130 -63 46 c-86 60 -171 101 -276 134 -81 25
-101 27 -263 27 -162 0 -181 -2 -265 -28 -324 -99 -567 -352 -647 -673 -31
-125 -31 -331 0 -458 48 -193 166 -374 331 -507 189 -152 412 -217 670 -197
227 19 405 105 579 280 134 134 215 284 248 454 9 50 18 96 20 103 3 9 49 12
192 12 175 0 190 1 210 20 38 36 37 60 -14 215 l-49 145 411 411 412 411 42
-126 c23 -70 40 -129 39 -130 -2 -2 -24 -14 -49 -26 -234 -118 -418 -349 -482
-607 -31 -125 -31 -331 0 -458 48 -193 166 -374 331 -507 189 -152 412 -217
670 -197 227 19 405 105 579 280 126 126 203 262 244 427 28 112 31 331 5 434
-53 216 -161 386 -332 524 -97 79 -203 134 -320 170 -79 23 -108 27 -240 28
-82 0 -170 -2 -195 -7 l-45 -8 -63 189 -62 188 0 162 0 162 255 0 c285 0 300
-3 329 -64 22 -47 20 -87 -7 -127 -33 -48 -60 -59 -159 -59 -105 0 -135 -10
-152 -51 -17 -40 -10 -75 22 -99 21 -17 40 -20 132 -20 141 0 187 16 262 90
45 45 60 69 73 115 36 123 -4 254 -99 326 -80 61 -103 64 -459 64 l-319 0 -24
-28 c-23 -28 -24 -32 -24 -213 l0 -184 -569 0 -569 0 -26 78 c-14 42 -26 80
-26 85 0 4 47 7 105 7 120 0 157 11 198 59 58 69 58 153 0 222 -46 55 -70 59
-311 59 -209 0 -221 -1 -262 -23z m1330 -665 c0 -13 -699 -706 -706 -700 -3 4
-60 165 -125 357 l-118 351 474 0 c261 0 475 -3 475 -8z m-877 -739 c64 -192
117 -351 117 -355 0 -5 -52 -8 -115 -8 l-115 0 0 33 c-1 96 -69 282 -146 397
l-55 83 43 46 c107 114 143 151 148 151 3 0 58 -156 123 -347z m-838 292 c77
-21 151 -54 221 -101 l56 -37 -276 -276 c-151 -152 -280 -288 -285 -303 -13
-34 -1 -70 31 -92 20 -14 71 -16 417 -16 l394 0 -7 -52 c-18 -133 -87 -267
-199 -384 -166 -176 -323 -244 -557 -244 -189 0 -323 44 -465 153 -232 177
-341 457 -291 744 30 171 97 298 221 418 106 103 226 168 369 201 79 18 288
12 371 -11z m2580 -5 c131 -41 206 -88 314 -193 178 -174 259 -419 218 -665
-29 -181 -93 -299 -237 -435 -101 -96 -206 -157 -326 -187 -106 -27 -282 -27
-388 0 -260 66 -474 276 -547 535 -29 103 -32 294 -6 400 38 153 143 315 264
407 56 43 143 98 156 98 3 0 60 -165 127 -367 93 -282 128 -373 146 -390 52
-48 134 -13 134 55 0 21 -53 197 -120 397 -66 198 -120 361 -120 362 0 7 83
11 190 8 94 -2 142 -9 195 -25z m-2115 -356 c37 -62 77 -174 86 -244 l7 -50
-279 0 -279 1 200 194 c227 221 198 210 265 99z"/>
</g>
</svg>
