<?xml version="1.0" standalone="no"?>
<!DOCTYPE svg PUBLIC "-//W3C//DTD SVG 20010904//EN"
 "http://www.w3.org/TR/2001/REC-SVG-20010904/DTD/svg10.dtd">
<svg version="1.0" xmlns="http://www.w3.org/2000/svg"
 width="840.000000pt" height="859.000000pt" viewBox="0 0 840.000000 859.000000"
 preserveAspectRatio="xMidYMid meet">

<g transform="translate(0.000000,859.000000) scale(0.100000,-0.100000)"
fill="#000000" stroke="none">
<path d="M2277 7454 c-604 -94 -1021 -531 -1237 -1294 -82 -290 -140 -696
-140 -976 l0 -83 -42 -12 c-108 -29 -248 -119 -359 -231 -236 -238 -390 -621
-446 -1113 -11 -94 -16 -229 -16 -415 -1 -314 14 -427 77 -604 49 -138 105
-226 207 -328 l87 -88 4 -292 c5 -328 9 -354 78 -494 27 -56 62 -106 112 -159
149 -160 316 -235 523 -235 183 0 313 54 440 184 141 143 194 276 202 515 l6
144 141 -7 c558 -26 2199 -46 2210 -27 10 15 136 15 136 0 0 -20 1762 2 2263
27 l127 7 0 -120 c0 -222 61 -375 210 -523 139 -138 285 -200 475 -200 256 0
470 133 588 365 69 137 77 189 77 520 l0 293 76 73 c87 84 141 159 189 262
135 285 152 831 40 1285 -72 294 -193 555 -363 782 -74 99 -238 267 -328 336
l-71 55 -7 147 c-9 190 -40 464 -72 622 -166 837 -538 1360 -1092 1535 -200
63 -44 59 -2117 61 -1569 2 -1905 0 -1978 -12z m3528 -435 c468 -57 813 -340
1006 -826 106 -267 179 -646 179 -929 l0 -84 -2775 0 c-2646 0 -2775 1 -2775
18 0 91 26 365 46 481 101 601 343 1006 725 1214 110 60 294 113 449 130 19 2
715 5 1545 5 1045 1 1538 -1 1600 -9z m-4554 -2592 c188 -64 332 -221 370
-405 16 -81 7 -234 -19 -307 -78 -213 -295 -365 -520 -365 -232 1 -445 155
-523 380 -31 87 -33 248 -5 330 55 161 162 283 305 347 76 34 113 41 226 42
79 0 114 -4 166 -22z m6190 7 c191 -57 347 -217 390 -401 17 -74 15 -209 -5
-278 -73 -249 -308 -418 -561 -402 -398 24 -638 438 -463 797 61 125 210 248
348 286 66 18 226 17 291 -2z m-1621 -639 c123 -39 218 -105 286 -200 123
-173 133 -392 26 -578 -38 -67 -134 -160 -201 -196 -121 -64 -31 -61 -1616
-61 -1290 0 -1447 2 -1496 16 -186 55 -326 200 -374 389 -60 235 62 487 288
596 77 37 97 42 184 48 54 3 717 5 1473 5 1274 -1 1379 -3 1430 -19z"/>
</g>
</svg>
