<?xml version="1.0" standalone="no"?>
<!DOCTYPE svg PUBLIC "-//W3C//DTD SVG 20010904//EN"
 "http://www.w3.org/TR/2001/REC-SVG-20010904/DTD/svg10.dtd">
<svg version="1.0" xmlns="http://www.w3.org/2000/svg"
 width="860.000000pt" height="901.000000pt" viewBox="0 0 860.000000 901.000000"
 preserveAspectRatio="xMidYMid meet">

<g transform="translate(0.000000,901.000000) scale(0.100000,-0.100000)"
fill="#000000" stroke="none">
<path d="M7174 8590 c-102 -19 -259 -84 -369 -155 -64 -40 -814 -834 -1319
-1395 -77 -85 -150 -166 -162 -179 -26 -27 0 -30 -254 25 -137 31 -1055 248
-1400 333 -500 122 -1598 387 -1870 451 -583 138 -563 134 -609 113 -43 -20
-444 -413 -507 -496 -47 -63 -54 -96 -33 -156 10 -27 44 -51 253 -175 404
-240 656 -387 1651 -961 341 -197 717 -414 835 -483 118 -68 268 -154 332
-191 65 -36 118 -70 118 -74 0 -4 -94 -110 -209 -235 -114 -125 -493 -540
-841 -922 -920 -1010 -911 -1000 -926 -1000 -8 0 -146 36 -307 81 -635 175
-846 229 -895 229 -51 0 -85 -33 -128 -125 -63 -138 -220 -613 -230 -699 -7
-56 -6 -57 33 -94 58 -55 187 -138 686 -438 l449 -269 155 -260 c423 -706 513
-848 561 -885 15 -12 40 -20 62 -20 46 0 210 47 466 134 289 98 364 137 380
201 7 28 -20 147 -94 425 -103 381 -174 653 -191 733 l-19 87 37 33 c21 17
269 244 552 502 1169 1070 1482 1350 1548 1385 19 10 26 9 36 -2 7 -7 203
-341 435 -743 989 -1711 1306 -2255 1369 -2350 49 -73 126 -87 202 -35 59 39
462 442 500 500 25 36 29 52 24 80 -19 110 -240 1030 -675 2810 -135 552 -276
1142 -285 1191 -6 34 -4 39 43 80 288 257 1413 1300 1479 1373 113 123 198
299 228 473 83 476 -213 937 -692 1079 -72 21 -113 27 -228 29 -77 2 -163 0
-191 -5z"/>
</g>
</svg>
