<?xml version="1.0" standalone="no"?>
<!DOCTYPE svg PUBLIC "-//W3C//DTD SVG 20010904//EN"
 "http://www.w3.org/TR/2001/REC-SVG-20010904/DTD/svg10.dtd">
<svg version="1.0" xmlns="http://www.w3.org/2000/svg"
 width="752.000000pt" height="752.000000pt" viewBox="0 0 752.000000 752.000000"
 preserveAspectRatio="xMidYMid meet">

<g transform="translate(0.000000,752.000000) scale(0.100000,-0.100000)"
fill="#000000" stroke="none">
<path d="M4010 6039 c-141 -24 -293 -139 -356 -269 -44 -91 -58 -158 -51 -254
12 -184 112 -333 282 -420 61 -31 52 -32 -50 -6 -43 11 -93 20 -111 20 -46 0
-558 -146 -619 -177 -103 -51 -124 -77 -332 -411 -249 -400 -304 -524 -305
-688 0 -101 28 -158 95 -192 87 -45 164 -6 283 145 153 193 402 468 438 486
28 13 36 14 36 3 0 -7 -30 -154 -66 -327 -74 -351 -88 -487 -62 -589 l15 -55
-88 -330 c-111 -417 -271 -881 -360 -1041 -127 -231 -101 -385 81 -480 48 -24
125 -23 175 3 49 26 109 88 162 168 61 91 370 645 426 765 l50 105 92 -275
c173 -518 339 -773 501 -773 155 -1 222 193 180 514 -23 172 -52 275 -187 665
-120 350 -128 378 -138 485 -17 178 -14 222 28 410 22 96 54 245 72 332 18 86
36 154 39 150 4 -5 22 -44 40 -87 39 -96 130 -220 179 -246 72 -36 349 -149
464 -189 281 -97 409 -116 479 -73 107 66 83 217 -54 348 -77 75 -157 127
-348 228 -80 43 -150 83 -157 89 -6 7 -53 84 -104 172 -161 280 -399 659 -439
699 -35 35 -51 43 -162 72 l-123 32 80 1 c138 2 247 44 341 133 321 304 133
829 -309 862 -34 3 -87 1 -117 -5z m177 -214 c61 -18 144 -89 175 -149 29 -57
35 -159 14 -224 -53 -157 -242 -240 -393 -173 -64 28 -134 100 -157 163 -23
60 -19 176 9 233 62 128 212 192 352 150z m-180 -771 c-3 -3 -12 -4 -19 -1 -8
3 -5 6 6 6 11 1 17 -2 13 -5z m-60 -206 c229 -56 223 -53 223 -122 0 -27 -212
-1034 -264 -1257 -22 -90 -23 -109 -15 -278 4 -100 11 -196 14 -214 4 -18 65
-201 136 -409 155 -449 178 -541 186 -735 4 -86 2 -143 -3 -143 -15 0 -76 98
-138 219 -41 81 -97 232 -225 617 -94 280 -186 551 -204 602 l-34 94 -57 23
c-156 63 -202 147 -177 316 6 41 59 305 118 587 58 282 104 515 100 518 -3 3
-115 -52 -250 -123 l-244 -129 -182 -208 c-100 -115 -194 -224 -208 -243 -14
-18 -28 -32 -30 -29 -16 16 79 194 248 467 174 280 197 313 238 337 41 24 489
159 536 161 11 1 115 -22 232 -51z m611 -702 c63 -111 125 -211 136 -223 12
-12 91 -58 176 -104 161 -85 299 -169 320 -194 7 -8 10 -15 7 -15 -22 0 -333
110 -462 164 -195 81 -213 98 -281 261 -26 61 -68 162 -95 225 -42 100 -47
120 -40 150 5 19 12 48 16 65 6 29 7 28 57 -50 27 -43 102 -169 166 -279z
m-1055 -1208 l45 -128 -52 -137 c-76 -198 -96 -238 -266 -543 -178 -318 -249
-436 -282 -467 l-24 -23 -23 21 c-29 28 -25 46 44 181 98 191 265 667 355
1010 34 128 63 239 65 246 3 9 16 6 49 -10 44 -21 44 -22 89 -150z"/>
</g>
</svg>
